<svg width="43" height="42" viewBox="0 0 43 42" fill="none" xmlns="http://www.w3.org/2000/svg">
<path d="M21.5336 39.9324C31.8061 39.9324 40.1336 31.6049 40.1336 21.3324C40.1336 11.0599 31.8061 2.73242 21.5336 2.73242C11.2611 2.73242 2.93359 11.0599 2.93359 21.3324C2.93359 31.6049 11.2611 39.9324 21.5336 39.9324Z" stroke="white" stroke-width="4.13333" stroke-linecap="round" stroke-linejoin="round"/>
<path fill-rule="evenodd" clip-rule="evenodd" d="M21.5335 29.5996C22.6749 29.5996 23.6001 30.5188 23.6001 31.6526V31.68C23.6001 32.8138 22.6749 33.7329 21.5335 33.7329C20.3921 33.7329 19.4668 32.8138 19.4668 31.68V31.6526C19.4668 30.5188 20.3921 29.5996 21.5335 29.5996Z" fill="white"/>
<path d="M21.8246 25.4667C21.7838 24.7473 21.9775 24.0342 22.3765 23.4347C22.7755 22.8352 23.3581 22.3818 24.0366 22.1428C24.8681 21.8243 25.6144 21.3168 26.2168 20.6602C26.8192 20.0037 27.2612 19.216 27.5081 18.3593C27.755 17.5025 27.8 16.6001 27.6395 15.7229C27.4791 14.8458 27.1176 14.018 26.5834 13.3046C26.0493 12.5912 25.3572 12.0117 24.5615 11.6118C23.7659 11.2119 22.8884 11.0025 21.9983 11C21.1081 10.9975 20.2295 11.2021 19.4316 11.5976C18.6338 11.993 17.9384 12.5686 17.4004 13.2791" stroke="white" stroke-width="4.13333" stroke-linecap="round" stroke-linejoin="round"/>
</svg>
