<svg width="19" height="14" viewBox="0 0 19 14" fill="none" xmlns="http://www.w3.org/2000/svg">
<path d="M9.83366 2.41667C12.992 2.41667 15.8087 4.19167 17.1837 7C15.8087 9.80833 13.0003 11.5833 9.83366 11.5833C6.66699 11.5833 3.85866 9.80833 2.48366 7C3.85866 4.19167 6.67533 2.41667 9.83366 2.41667ZM9.83366 0.75C5.66699 0.75 2.10866 3.34167 0.666992 7C2.10866 10.6583 5.66699 13.25 9.83366 13.25C14.0003 13.25 17.5587 10.6583 19.0003 7C17.5587 3.34167 14.0003 0.75 9.83366 0.75ZM9.83366 4.91667C10.9837 4.91667 11.917 5.85 11.917 7C11.917 8.15 10.9837 9.08333 9.83366 9.08333C8.68366 9.08333 7.75032 8.15 7.75032 7C7.75032 5.85 8.68366 4.91667 9.83366 4.91667ZM9.83366 3.25C7.76699 3.25 6.08366 4.93333 6.08366 7C6.08366 9.06667 7.76699 10.75 9.83366 10.75C11.9003 10.75 13.5837 9.06667 13.5837 7C13.5837 4.93333 11.9003 3.25 9.83366 3.25Z" fill="#2E65F3"/>
</svg>
