<svg width="18" height="18" viewBox="0 0 18 18" fill="none" xmlns="http://www.w3.org/2000/svg">
<path d="M8.9867 18C4.04372 18.0046 0.00464373 13.9758 4.02219e-06 9.03565C-0.00463569 4.04107 4.00534 0.00718202 8.98206 9.53308e-06C13.9714 -0.00716295 18.0114 4.0339 18 9.02046C17.9886 13.9952 13.9731 17.9954 8.98628 18H8.9867ZM8.98966 16.2022C12.9811 16.1997 16.2019 12.9755 16.1993 8.98587C16.1968 5.0275 12.9545 1.7906 9.00104 1.8003C5.01722 1.81001 1.79135 5.03847 1.80148 9.00612C1.81118 12.9801 5.0324 16.2043 8.98966 16.2018V16.2022Z" fill="#0FB600"/>
<path d="M8.03219 10.244C8.38185 9.78159 8.71971 9.33521 9.05714 8.88841C9.84083 7.85135 10.6262 6.81514 11.4078 5.77597C11.7132 5.36967 12.2547 5.27136 12.6592 5.55658C13.0747 5.8498 13.181 6.4042 12.8777 6.82315C12.5154 7.32396 12.132 7.81 11.7575 8.30195C10.7827 9.58245 9.80835 10.8634 8.83233 12.143C8.35781 12.7649 7.72301 12.7675 7.23711 12.1472C6.54326 11.2621 5.84984 10.3769 5.16189 9.48752C4.81476 9.03861 4.90123 8.45932 5.34833 8.15766C5.75662 7.88257 6.25518 7.96653 6.58333 8.38127C7.01483 8.92722 7.43535 9.48161 7.86094 10.0318C7.91156 10.0968 7.9647 10.1596 8.03219 10.2423V10.244Z" fill="#0FB600"/>
</svg>
