<svg width="38" height="38" viewBox="0 0 38 38" fill="none" xmlns="http://www.w3.org/2000/svg">
<path d="M18.9046 37.3328C8.68906 37.3424 0.341628 29.0162 0.33204 18.8065C0.322451 8.48436 8.60974 0.147655 18.895 0.132832C29.2063 0.118009 37.5555 8.46954 37.532 18.7751C37.5084 29.0563 29.2098 37.3232 18.9037 37.3328H18.9046ZM18.9107 33.6174C27.1596 33.6122 33.8159 26.9488 33.8107 18.7036C33.8055 10.523 27.1047 3.83338 18.9342 3.85344C10.701 3.87349 4.03416 10.5456 4.05508 18.7455C4.07513 26.9584 10.7323 33.6218 18.9107 33.6166V33.6174Z" fill="#0FB600"/>
<path d="M16.9319 21.3038C17.6545 20.3481 18.3528 19.4256 19.0501 18.5022C20.6698 16.3589 22.2929 14.2174 23.9081 12.0698C24.5392 11.2301 25.6585 11.027 26.4945 11.6164C27.3531 12.2224 27.5728 13.3682 26.946 14.234C26.1972 15.269 25.4048 16.2735 24.6308 17.2902C22.6163 19.9365 20.6026 22.5838 18.5855 25.2284C17.6048 26.5137 16.2929 26.5189 15.2887 25.2371C13.8548 23.4078 12.4217 21.5784 10.9999 19.7404C10.2825 18.8126 10.4612 17.6154 11.3852 16.992C12.229 16.4235 13.2594 16.597 13.9376 17.4541C14.8293 18.5824 15.6984 19.7281 16.578 20.8652C16.6826 20.9994 16.7924 21.1294 16.9319 21.3003V21.3038Z" fill="#0FB600"/>
</svg>
