<svg width="13" height="14" viewBox="0 0 13 14" fill="none" xmlns="http://www.w3.org/2000/svg">
<path fill-rule="evenodd" clip-rule="evenodd" d="M7.49707 1.49759C7.49707 0.945304 7.04936 0.497589 6.49707 0.497589C5.94479 0.497589 5.49707 0.945304 5.49707 1.49759V5.99995H0.995117C0.442832 5.99995 -0.00488281 6.44767 -0.00488281 6.99995C-0.00488281 7.55224 0.442832 7.99995 0.995117 7.99995H5.49707V12.5024C5.49707 13.0547 5.94479 13.5024 6.49707 13.5024C7.04936 13.5024 7.49707 13.0547 7.49707 12.5024V7.99995H11.9999C12.5522 7.99995 12.9999 7.55224 12.9999 6.99995C12.9999 6.44767 12.5522 5.99995 11.9999 5.99995H7.49707V1.49759Z" fill="white"/>
</svg>
