<svg width="21" height="20" viewBox="0 0 21 20" fill="none" xmlns="http://www.w3.org/2000/svg">
<path fill-rule="evenodd" clip-rule="evenodd" d="M11.6408 1.66602C11.6408 1.11373 11.1931 0.666016 10.6408 0.666016C10.0885 0.666016 9.64079 1.11373 9.64079 1.66602V9.12771H1.66797C1.11568 9.12771 0.667969 9.57542 0.667969 10.1277C0.667969 10.68 1.11568 11.1277 1.66797 11.1277H9.64079V18.5902C9.64079 19.1425 10.0885 19.5902 10.6408 19.5902C11.1931 19.5902 11.6408 19.1425 11.6408 18.5902V11.1277H19.6076C20.1599 11.1277 20.6076 10.68 20.6076 10.1277C20.6076 9.57542 20.1599 9.12771 19.6076 9.12771H11.6408V1.66602Z" fill="url(#paint0_linear_27_104470)"/>
<defs>
<linearGradient id="paint0_linear_27_104470" x1="10.6378" y1="0.666016" x2="10.6378" y2="19.5902" gradientUnits="userSpaceOnUse">
<stop stop-color="#6CA5FC"/>
<stop offset="1" stop-color="#094FB8"/>
</linearGradient>
</defs>
</svg>
