<svg width="26" height="26" viewBox="0 0 26 26" fill="none" xmlns="http://www.w3.org/2000/svg">
<g clip-path="url(#clip0_27_89241)">
<path d="M25.999 15.101C25.9708 15.2086 25.9516 15.3198 25.912 15.4229C25.8589 15.5618 25.7491 15.6297 25.5981 15.6329C25.1603 15.6417 24.7225 15.6574 24.2847 15.6621C23.8034 15.6673 23.3218 15.6652 22.8403 15.6611C22.7492 15.6603 22.7034 15.6838 22.6729 15.777C22.4509 16.4587 22.1924 17.126 21.8522 17.7583C21.7827 17.8878 21.79 17.9829 21.8952 18.091C22.3405 18.5478 22.7815 19.0092 23.2195 19.4731C23.4161 19.6812 23.6076 19.8948 23.7922 20.1138C23.9312 20.2788 23.9317 20.3089 23.7844 20.4665C23.3309 20.9519 22.8801 21.4399 22.4121 21.9109C21.8155 22.5111 21.2064 23.099 20.5963 23.686C20.3141 23.9575 20.2475 23.9593 19.9555 23.6909C19.5785 23.3445 19.2144 22.9839 18.8471 22.627C18.5824 22.3698 18.32 22.1103 18.06 21.8485C18.0066 21.7947 17.966 21.7858 17.8937 21.8158C17.1857 22.1085 16.4748 22.3949 15.7671 22.6884C15.7291 22.704 15.6861 22.7662 15.6858 22.8069C15.6809 23.5066 15.6871 24.2063 15.6793 24.906C15.6765 25.1569 15.6546 25.4094 15.6195 25.6579C15.5898 25.8678 15.4958 25.9495 15.2889 25.9545C14.4177 25.9751 13.5462 25.9981 12.6748 25.9999C12.0204 26.0015 11.3657 25.9754 10.7114 25.9542C10.5078 25.9477 10.404 25.8498 10.3771 25.6428C10.3493 25.4279 10.3303 25.2104 10.3277 24.994C10.3191 24.2771 10.3175 23.5599 10.3194 22.8427C10.3196 22.7424 10.2858 22.7056 10.1955 22.669C9.50933 22.3918 8.82528 22.1093 8.14357 21.821C8.05793 21.7848 8.01082 21.7879 7.94444 21.8532C7.33665 22.4487 6.726 23.0411 6.11405 23.6322C6.03961 23.7042 5.95267 23.7635 5.87042 23.8272C5.77098 23.904 5.66999 23.9047 5.57446 23.8215C5.40111 23.6706 5.22046 23.5264 5.05856 23.3638C4.14285 22.444 3.22843 21.5229 2.32079 20.5953C2.03603 20.3042 2.03394 20.2331 2.31454 19.9334C2.85153 19.3598 3.40309 18.8001 3.94867 18.2345C4.01504 18.1659 4.07647 18.0917 4.14857 18.0293C4.21417 17.9727 4.2061 17.9244 4.17538 17.8505C3.88646 17.1586 3.60039 16.4652 3.32006 15.7697C3.28674 15.6872 3.25264 15.6608 3.16336 15.66C2.30465 15.6537 1.4462 15.6423 0.587748 15.6297C0.501851 15.6284 0.414653 15.6156 0.330318 15.5976C0.141865 15.5574 0.0533646 15.46 0.0452955 15.2653C0.0252529 14.7836 0.000264642 14.3013 4.34828e-06 13.8194C-0.000255946 12.8547 0.011197 11.8897 0.0270749 10.925C0.0294176 10.778 0.0601323 10.6227 0.116616 10.4877C0.181169 10.3331 0.342031 10.3149 0.494563 10.3133C1.37488 10.3039 2.25493 10.2914 3.13525 10.2888C3.26357 10.2885 3.31147 10.2467 3.34791 10.1282C3.56083 9.43371 3.84585 8.76794 4.17486 8.12124C4.22171 8.02908 4.21703 7.97556 4.14154 7.89906C3.54183 7.28943 2.94185 6.68007 2.35489 6.05817C2.02249 5.7057 2.02822 5.66602 2.36165 5.30938C3.3729 4.22771 4.41147 3.17294 5.50783 2.17691C5.68509 2.01582 5.72726 2.00929 5.90426 2.17221C6.33817 2.57193 6.76088 2.98418 7.18907 3.39042C7.43765 3.62644 7.68961 3.85933 7.93637 4.09743C8.00717 4.16584 8.07016 4.16819 8.15502 4.12433C8.82241 3.77944 9.51375 3.49146 10.2324 3.2732C10.3207 3.2463 10.3183 3.19409 10.3186 3.12699C10.3204 2.41867 10.3194 1.71009 10.3274 1.00177C10.33 0.772283 10.3477 0.541747 10.3758 0.313822C10.4045 0.0811967 10.4732 0.0336797 10.7101 0.0263694C10.8959 0.0206255 11.0815 0.0091379 11.2674 0C12.6644 0 14.0611 0 15.4581 0C15.5216 0.111743 15.6083 0.216699 15.6421 0.336797C15.6804 0.472038 15.6804 0.620594 15.6809 0.763406C15.6845 1.54979 15.6848 2.33617 15.6814 3.12255C15.6812 3.21289 15.7111 3.25231 15.7946 3.27946C16.5089 3.51156 17.1935 3.81546 17.8624 4.15487C17.9639 4.20631 18.0189 4.1896 18.0946 4.11545C18.7206 3.5019 19.3461 2.88758 19.9815 2.28369C20.2946 1.98606 20.3147 1.98893 20.6213 2.28682C21.4365 3.07921 22.2492 3.87447 23.0548 4.67678C23.3187 4.93969 23.5623 5.22401 23.8073 5.50545C23.9314 5.64827 23.9291 5.71093 23.8133 5.86262C23.7107 5.99681 23.6027 6.12866 23.485 6.24954C22.946 6.80277 22.404 7.35366 21.8585 7.90037C21.7832 7.97582 21.7788 8.03039 21.8231 8.12359C22.1435 8.79745 22.4647 9.4713 22.6794 10.1888C22.7075 10.2825 22.7656 10.2809 22.8364 10.2817C23.4822 10.289 24.1282 10.2937 24.774 10.3057C25.064 10.3112 25.3542 10.3235 25.6431 10.3472C25.8391 10.3632 25.9737 10.5303 25.9776 10.7224C25.9836 11.0258 25.9925 11.3292 26 11.6325C26 12.7889 26 13.9452 26 15.1016L25.999 15.101ZM5.74131 3.05389C4.84694 3.94496 3.98485 4.80366 3.1139 5.67098C3.15347 5.70727 3.19329 5.74043 3.22973 5.7775C3.7688 6.32525 4.3136 6.86778 4.84434 7.42337C5.20537 7.80116 5.1861 7.83875 4.95184 8.30609C4.70534 8.79771 4.4781 9.30003 4.26675 9.8081C4.14415 10.1029 4.06606 10.4167 3.97496 10.7242C3.91483 10.9279 3.78676 11.0404 3.57671 11.0571C3.44291 11.0678 3.3086 11.0817 3.17455 11.0822C2.45432 11.0851 1.73434 11.084 1.01411 11.0843C0.964394 11.0843 0.914418 11.0843 0.864962 11.0843V14.7961C0.901923 14.8 0.931337 14.8057 0.96049 14.8057C1.36395 14.8065 1.7674 14.8026 2.17086 14.8081C2.63913 14.8144 3.10714 14.8298 3.5754 14.8397C3.74642 14.8433 3.86355 14.9222 3.9229 15.083C3.96038 15.1846 3.99968 15.2859 4.0291 15.39C4.2618 16.2119 4.57077 17.0015 5.00416 17.7395C5.04346 17.8064 5.06819 17.8818 5.10281 17.9515C5.14654 18.0395 5.13639 18.1192 5.07262 18.1928C4.93883 18.3468 4.81076 18.5061 4.66968 18.6531C4.1923 19.1517 3.71258 19.6483 3.22817 20.1405C3.13577 20.2344 3.1316 20.3034 3.23156 20.3835C3.24847 20.3971 3.26201 20.4146 3.27711 20.43C4.05695 21.2221 4.83679 22.0142 5.61663 22.8061C5.64266 22.8325 5.67207 22.8555 5.72439 22.9014C6.2114 22.4033 6.68774 21.9095 7.17215 21.4242C7.34941 21.2464 7.54515 21.0869 7.73516 20.9221C7.81794 20.8503 7.91451 20.8394 8.01472 20.8864C8.20265 20.9749 8.38954 21.066 8.57826 21.1535C8.97885 21.3391 9.37398 21.5385 9.7829 21.7033C10.0989 21.8304 10.4326 21.9142 10.759 22.015C10.9503 22.074 11.0729 22.1939 11.1052 22.3954C11.1195 22.4852 11.133 22.5764 11.1351 22.667C11.1513 23.4405 11.1648 24.2139 11.1794 24.9875C11.1802 25.0342 11.1841 25.0807 11.1867 25.1337H14.8308C14.8308 25.0475 14.83 24.9702 14.8308 24.8929C14.8402 24.1152 14.8443 23.3372 14.8615 22.5596C14.8701 22.1685 14.9247 22.1069 15.292 22.0067C16.0388 21.803 16.7546 21.5231 17.4376 21.1579C17.617 21.0621 17.8005 20.9741 17.9835 20.8858C18.0819 20.8383 18.1787 20.8493 18.2641 20.9185C18.382 21.014 18.5046 21.1052 18.6126 21.2112C19.1457 21.7344 19.6746 22.2618 20.2051 22.7873C20.2376 22.8194 20.2712 22.8505 20.3055 22.8834C21.1708 22.0161 22.0256 21.1595 22.9064 20.2765C22.8596 20.2415 22.813 20.2156 22.7773 20.1791C22.208 19.594 21.6427 19.005 21.0705 18.423C20.8745 18.2238 20.8183 18.021 20.9758 17.774C21.0385 17.6758 21.0862 17.5675 21.1361 17.4615C21.3202 17.0735 21.5219 16.6926 21.6796 16.2944C21.8322 15.9086 21.9425 15.5057 22.0636 15.1078C22.1083 14.9603 22.1953 14.877 22.3455 14.8619C22.5305 14.8433 22.7161 14.8172 22.9017 14.8151C23.6001 14.8076 24.2985 14.8081 24.9968 14.8057C25.0426 14.8057 25.0882 14.8057 25.1322 14.8057V11.0837C25.0705 11.0837 25.0187 11.0837 24.9672 11.0837C24.2079 11.0822 23.4489 11.0864 22.6898 11.0767C22.1578 11.0699 22.1323 11.0571 21.9946 10.5869C21.751 9.75432 21.4279 8.95828 21.0021 8.20192C20.8038 7.84998 20.8201 7.8163 21.0765 7.51214C21.1044 7.47898 21.1328 7.44582 21.1632 7.41475C21.7049 6.86335 22.246 6.31168 22.7898 5.7621C22.8252 5.72633 22.8786 5.70832 22.91 5.6903C22.0165 4.79505 21.1593 3.93635 20.299 3.07451C20.2785 3.09357 20.2558 3.11341 20.2345 3.13456C19.7618 3.60138 19.2909 4.07028 18.8151 4.53396C18.6506 4.69427 18.4741 4.84257 18.3018 4.99451C18.1938 5.08981 18.0756 5.112 17.9423 5.04255C17.8463 4.99269 17.7458 4.9517 17.6477 4.90575C17.1495 4.67364 16.6567 4.42796 16.1507 4.21414C15.8652 4.09352 15.5588 4.02146 15.2597 3.93426C15.0192 3.86403 14.8865 3.70868 14.8618 3.46118C14.8485 3.32724 14.8344 3.19278 14.8339 3.05832C14.8305 2.35418 14.8316 1.65004 14.831 0.945642C14.831 0.899953 14.831 0.854524 14.831 0.809096H11.1867C11.1838 0.862357 11.1799 0.908829 11.1789 0.955302C11.1643 1.755 11.144 2.55443 11.1393 3.35413C11.1377 3.63245 11.0508 3.82408 10.7663 3.89562C10.7038 3.91128 10.6453 3.94209 10.5843 3.9648C10.1137 4.13895 9.63739 4.29873 9.17433 4.49089C8.77452 4.65667 8.38876 4.85719 7.9991 5.04647C7.89056 5.09921 7.8018 5.08615 7.71512 5.00705C7.51652 4.82559 7.30828 4.65406 7.11853 4.46347C6.65286 3.99587 6.19578 3.51992 5.74105 3.0531L5.74131 3.05389Z" fill="white"/>
<path d="M13.0567 19.9929C9.24697 20.1753 5.99763 16.8157 6.01187 13.2881C5.76728 9.13168 9.34312 6.011 12.8776 6.00003C16.8235 5.98797 20.0126 9.10645 20 13.0207C19.9863 17.2139 16.4764 20.1125 13.0567 19.9926V19.9929ZM10.5524 18.6621C12.9918 19.7738 16.2721 19.0945 18.0547 16.5179C19.9101 13.8357 19.3935 10.2612 16.8388 8.21029C14.3594 6.21996 10.7902 6.39985 8.53181 8.76586C7.42112 9.9294 6.85222 11.337 6.82592 12.947C6.81223 13.7913 6.99218 14.6055 7.31347 15.4128C7.38579 15.3541 7.43427 15.3207 7.4759 15.2801C7.96729 14.8035 8.44334 14.3099 8.95417 13.8549C9.22698 13.6117 9.37051 13.3561 9.30751 12.9939C9.29984 12.9497 9.30586 12.9028 9.30723 12.857C9.34476 11.5279 9.88545 10.4362 10.9071 9.59978C11.8721 8.80974 12.9921 8.49685 14.2323 8.66084C14.4219 8.68579 14.6172 8.75078 14.7843 8.8432C15.005 8.96523 15.0217 9.19228 14.8568 9.37876C14.7601 9.48817 14.6618 9.59622 14.5605 9.70152C13.9365 10.3492 13.3131 10.997 12.6856 11.6411C12.5919 11.7371 12.564 11.8243 12.6135 11.9548C12.7417 12.291 12.8532 12.6338 12.98 12.9708C12.9989 13.0213 13.0559 13.0739 13.1071 13.0931C13.4528 13.2217 13.8031 13.3386 14.1491 13.4666C14.2408 13.5006 14.2967 13.4809 14.363 13.4148C14.9124 12.8669 15.463 12.3201 16.0179 11.7777C16.2299 11.5706 16.4463 11.3669 16.6745 11.1782C16.8479 11.0345 17.0399 11.0614 17.1738 11.2443C17.2527 11.3518 17.3129 11.4818 17.3483 11.6109C17.4666 12.045 17.4554 12.4896 17.399 12.93C17.2732 13.9098 16.8465 14.7456 16.151 15.4443C15.5101 16.0885 14.7654 16.5445 13.8483 16.6581C13.4509 16.7071 13.048 16.7115 12.6483 16.7447C12.5782 16.7505 12.4949 16.7812 12.4462 16.8294C11.8756 17.3952 11.3114 17.9669 10.743 18.5346C10.6954 18.5823 10.6297 18.6119 10.5524 18.6626V18.6621ZM13.5884 9.49393C13.5829 9.48324 13.5774 9.47227 13.5719 9.46157C13.3999 9.47803 13.2257 9.48324 13.0559 9.51258C12.4528 9.61678 11.9266 9.8932 11.453 10.2694C10.7052 10.8637 10.2717 11.6364 10.2024 12.5949C10.1766 12.9492 10.195 13.3065 10.1791 13.6619C10.1752 13.7483 10.1363 13.8516 10.078 13.9139C9.62003 14.4039 9.15138 14.8841 8.69012 15.3714C8.43293 15.6429 8.18477 15.9231 7.93004 16.1968C7.85197 16.2807 7.85471 16.3512 7.92155 16.4453C8.40773 17.13 8.99389 17.71 9.69317 18.177C9.78712 18.2398 9.83888 18.2387 9.92051 18.1567C10.6674 17.4061 11.4188 16.6597 12.1723 15.916C12.2175 15.8713 12.2955 15.837 12.3583 15.8368C12.5451 15.8362 12.7316 15.8559 12.9184 15.8661C13.6815 15.9075 14.386 15.7243 15.0149 15.2891C15.8714 14.6962 16.3825 13.8774 16.563 12.8521C16.5781 12.7663 16.5846 12.6791 16.5953 12.5927C16.5783 12.582 16.5614 12.5713 16.5446 12.5606C16.4362 12.6516 16.3225 12.7372 16.2201 12.8345C15.7139 13.3155 15.2085 13.7973 14.7076 14.2841C14.5775 14.4105 14.4358 14.4464 14.271 14.3872C13.6755 14.1733 13.0795 13.9616 12.4886 13.7351C12.4089 13.7047 12.332 13.6068 12.2997 13.5223C12.0805 12.9481 11.8767 12.3681 11.6609 11.7925C11.602 11.6354 11.6308 11.5185 11.7469 11.3995C12.3303 10.802 12.9088 10.1995 13.489 9.59869C13.5224 9.56386 13.5552 9.52848 13.5884 9.49338V9.49393Z" fill="white"/>
</g>
<defs>
<clipPath id="clip0_27_89241">
<rect width="26" height="26" fill="white"/>
</clipPath>
</defs>
</svg>
