<svg width="60" height="60" viewBox="0 0 60 60" fill="none" xmlns="http://www.w3.org/2000/svg">
<path d="M26.0106 39.6666H21.1147L24.1745 20.3452H29.0709L26.0106 39.6666ZM16.996 20.3452L12.3285 33.6346L11.7762 30.7729L11.7767 30.774L10.1293 22.0849C10.1293 22.0849 9.93008 20.3452 7.80684 20.3452H0.0905434L0 20.6724C0 20.6724 2.35966 21.1768 5.12123 22.8808L9.37475 39.6672H14.4759L22.2651 20.3452H16.996ZM55.5045 39.6666H60L56.0805 20.3447H52.1449C50.3275 20.3447 49.8848 21.7846 49.8848 21.7846L42.583 39.6666H47.6866L48.7072 36.7966H54.9311L55.5045 39.6666ZM50.1172 32.832L52.6896 25.6015L54.1368 32.832H50.1172ZM42.9658 24.9916L43.6645 20.8424C43.6645 20.8424 41.5086 20 39.2611 20C36.8315 20 31.0619 21.091 31.0619 26.3964C31.0619 31.388 37.8335 31.45 37.8335 34.0719C37.8335 36.6938 31.7596 36.224 29.755 34.5706L29.0272 38.909C29.0272 38.909 31.2133 40 34.5533 40C37.8944 40 42.9346 38.2226 42.9346 33.385C42.9346 28.3614 36.1021 27.8936 36.1021 25.7095C36.1026 23.5248 40.8707 23.8055 42.9658 24.9916Z" fill="white"/>
<path d="M11.7767 30.7734L10.1293 22.0844C10.1293 22.0844 9.93009 20.3447 7.80685 20.3447H0.0905435L0 20.6719C0 20.6719 3.70876 21.4616 7.26611 24.4205C10.6675 27.2486 11.7767 30.7734 11.7767 30.7734Z" fill="white"/>
</svg>
