<?xml version="1.0" encoding="UTF-8"?>
<!DOCTYPE svg PUBLIC "-//W3C//DTD SVG 1.1//EN" "http://www.w3.org/Graphics/SVG/1.1/DTD/svg11.dtd">
<!-- Creator: CorelDRAW -->
<svg xmlns="http://www.w3.org/2000/svg" xml:space="preserve" width="71.4071mm" height="115.16mm" version="1.1" style="shape-rendering:geometricPrecision; text-rendering:geometricPrecision; image-rendering:optimizeQuality; fill-rule:evenodd; clip-rule:evenodd"
viewBox="0 0 368.17 593.76"
 xmlns:xlink="http://www.w3.org/1999/xlink"
 xmlns:xodm="http://www.corel.com/coreldraw/odm/2003">
 <defs>
  <style type="text/css">
   <![CDATA[
    .fil0 {fill:#FEFEFE}
   ]]>
  </style>
 </defs>
 <g id="Слой_x0020_1">
  <metadata id="CorelCorpID_0Corel-Layer"/>
  <path class="fil0" d="M-0 0l0 593.76 368.17 0c-0.98,-0.04 -5.07,-0.16 -5.31,-0.2 -6.34,-0.9 -15.12,-6.27 -18.33,-11.35 -7.74,-12.24 -14.99,-24.89 -22.87,-37.04 -7,-10.78 -12.96,-22.18 -20.22,-32.82l-87.26 -141.9c-1.9,-3.72 -21.85,-35.99 -25.47,-41.58 -16.43,-25.38 -33.27,-54.84 -49.61,-80.63 -8.83,-13.95 -17.96,-30.09 -26.89,-43.73 -8.1,-12.38 -15.46,-25.17 -23.23,-37.78l-25.02 -40.66c-10.46,-17.03 -25.79,-41.11 -35.34,-57.53l-17.1 -27.96c-3.16,-4.68 -4.45,-14.92 -2.54,-19.87 4.49,-11.58 7.41,-13.71 18,-19.37 3.74,-1.75 8.47,-1.3 12.44,-1.3 0,0 -1.19,-0 -39.43,-0.05z"/>
 </g>
</svg>
