<svg width="18" height="19" viewBox="0 0 18 19" fill="none" xmlns="http://www.w3.org/2000/svg">
<path d="M6.75 11.1875H11.25" stroke="white" stroke-linecap="round" stroke-linejoin="round"/>
<path d="M6.75 8.9375H11.25" stroke="white" stroke-linecap="round" stroke-linejoin="round"/>
<path d="M11.2501 3.3125H14.0625C14.2117 3.3125 14.3548 3.37176 14.4602 3.47725C14.5657 3.58274 14.625 3.72582 14.625 3.875V15.6875C14.625 15.8367 14.5657 15.9798 14.4602 16.0852C14.3548 16.1907 14.2117 16.25 14.0625 16.25H3.9375C3.78832 16.25 3.64524 16.1907 3.53975 16.0852C3.43426 15.9798 3.375 15.8367 3.375 15.6875V3.875C3.375 3.72582 3.43426 3.58274 3.53975 3.47725C3.64524 3.37176 3.78832 3.3125 3.9375 3.3125H6.74985" stroke="white" stroke-linecap="round" stroke-linejoin="round"/>
<path d="M6.1875 5.5625V5C6.1875 4.25408 6.48382 3.53871 7.01126 3.01126C7.53871 2.48382 8.25408 2.1875 9 2.1875C9.74592 2.1875 10.4613 2.48382 10.9887 3.01126C11.5162 3.53871 11.8125 4.25408 11.8125 5V5.5625H6.1875Z" stroke="white" stroke-linecap="round" stroke-linejoin="round"/>
</svg>
