<svg width="18" height="19" viewBox="0 0 18 19" fill="none" xmlns="http://www.w3.org/2000/svg">
<path d="M4.0498 14.9C4.39568 14.5126 6.01559 12.73 6.49031 12.73H11.5096C12.1975 12.73 13.6018 14.2077 13.9498 14.7285M16.1998 9.5C16.1998 13.4764 12.9763 16.7 8.9998 16.7C5.02335 16.7 1.7998 13.4764 1.7998 9.5C1.7998 5.52355 5.02335 2.3 8.9998 2.3C12.9763 2.3 16.1998 5.52355 16.1998 9.5ZM11.5789 7.04597C11.5789 5.67233 10.4193 4.55 9.00002 4.55C7.58074 4.55 6.42111 5.67233 6.42111 7.04597C6.42111 8.4196 7.58074 9.54194 9.00002 9.54194C10.4193 9.54194 11.5789 8.4196 11.5789 7.04597Z" stroke="white"/>
</svg>
