<svg width="21" height="20" viewBox="0 0 21 20" fill="none" xmlns="http://www.w3.org/2000/svg">
<path d="M4.75476 15.7452C4.03569 15.0262 4.51262 13.5165 4.14662 12.632C3.76722 11.715 2.375 10.9769 2.375 9.99997C2.375 9.02301 3.76722 8.285 4.14663 7.36803C4.51263 6.48346 4.0357 4.97382 4.75476 4.25476C5.47382 3.53569 6.98346 4.01262 7.86804 3.64662C8.78502 3.26722 9.52305 1.875 10.5 1.875C11.477 1.875 12.215 3.26722 13.132 3.64663C14.0165 4.01263 15.5262 3.5357 16.2452 4.25476C16.9643 4.97382 16.4874 6.48346 16.8534 7.36804C17.2328 8.28502 18.625 9.02305 18.625 10C18.625 10.977 17.2328 11.715 16.8534 12.632C16.4874 13.5165 16.9643 15.0262 16.2452 15.7452C15.5262 16.4643 14.0165 15.9874 13.132 16.3534C12.215 16.7328 11.4769 18.125 10.5 18.125C9.52301 18.125 8.785 16.7328 7.86803 16.3534C6.98346 15.9874 5.47382 16.4643 4.75476 15.7452Z" stroke="white" stroke-linecap="round" stroke-linejoin="round"/>
<path d="M10.5 15C11.0178 15 11.4375 14.5803 11.4375 14.0625C11.4375 13.5447 11.0178 13.125 10.5 13.125C9.98223 13.125 9.5625 13.5447 9.5625 14.0625C9.5625 14.5803 9.98223 15 10.5 15Z" fill="white"/>
<path d="M10.5 11.2504V10.6254C10.9326 10.6254 11.3556 10.4971 11.7153 10.2567C12.075 10.0163 12.3554 9.67469 12.521 9.27497C12.6866 8.87526 12.7299 8.43543 12.6455 8.01109C12.5611 7.58676 12.3527 7.19698 12.0468 6.89106C11.7409 6.58513 11.3511 6.37679 10.9268 6.29238C10.5024 6.20798 10.0626 6.2513 9.66288 6.41687C9.26317 6.58243 8.92153 6.86281 8.68116 7.22254C8.4408 7.58227 8.3125 8.00521 8.3125 8.43785" stroke="white" stroke-linecap="round" stroke-linejoin="round"/>
</svg>
