<svg width="20" height="15" viewBox="0 0 20 15" fill="none" xmlns="http://www.w3.org/2000/svg">
<path d="M16.75 9.11328C17.9381 10.0195 19 12.3011 19 13.707C19 14.145 18.687 14.5 18.3008 14.5H17.875M13.375 5.39882C14.1436 4.94495 14.6607 4.09662 14.6607 3.125C14.6607 2.15338 14.1436 1.30505 13.375 0.851178M1.69916 14.5H14.0151C14.4013 14.5 14.7143 14.145 14.7143 13.707C14.7143 10.954 12.4612 8.72222 7.85714 8.72222C3.25306 8.72222 1 10.954 1 13.707C1 14.145 1.31302 14.5 1.69916 14.5ZM10.4286 3.125C10.4286 4.57475 9.2773 5.75 7.85714 5.75C6.43698 5.75 5.28571 4.57475 5.28571 3.125C5.28571 1.67525 6.43698 0.5 7.85714 0.5C9.2773 0.5 10.4286 1.67525 10.4286 3.125Z" stroke="white" stroke-linecap="round"/>
</svg>
