<svg width="24" height="25" viewBox="0 0 24 25" fill="none" xmlns="http://www.w3.org/2000/svg">
<path d="M20.6221 16.3522L12 21.3817L3.37794 16.3522C3.20612 16.2519 3.00153 16.2241 2.80916 16.2747C2.6168 16.3253 2.45242 16.4503 2.35218 16.6221C2.25195 16.7939 2.22407 16.9985 2.27469 17.1909C2.32531 17.3832 2.45027 17.5476 2.62208 17.6478L11.6221 22.8978C11.7368 22.9647 11.8672 23 12 23C12.1328 23 12.2632 22.9647 12.3779 22.8978L21.3779 17.6478C21.463 17.5982 21.5375 17.5323 21.5971 17.4539C21.6567 17.3755 21.7003 17.2861 21.7253 17.1909C21.7504 17.0956 21.7565 16.9964 21.7432 16.8988C21.7299 16.8012 21.6975 16.7072 21.6478 16.6221C21.5982 16.537 21.5323 16.4625 21.4539 16.4029C21.3755 16.3433 21.2861 16.2998 21.1909 16.2747C21.0956 16.2496 20.9964 16.2436 20.8988 16.2569C20.8012 16.2702 20.7072 16.3026 20.6221 16.3522Z" fill="#2E65F3"/>
<path d="M20.6221 11.8522L12 16.8817L3.37794 11.8522C3.20612 11.7519 3.00153 11.7241 2.80916 11.7747C2.6168 11.8253 2.45242 11.9503 2.35218 12.1221C2.25195 12.2939 2.22407 12.4985 2.27469 12.6909C2.32531 12.8832 2.45027 13.0476 2.62208 13.1478L11.6221 18.3978C11.7368 18.4648 11.8672 18.5 12 18.5C12.1328 18.5 12.2632 18.4648 12.3779 18.3978L21.3779 13.1478C21.5498 13.0476 21.6747 12.8832 21.7253 12.6909C21.7759 12.4985 21.7481 12.2939 21.6478 12.1221C21.5476 11.9503 21.3832 11.8253 21.1909 11.7747C20.9985 11.7241 20.7939 11.7519 20.6221 11.8522Z" fill="#2E65F3"/>
<path d="M2.62207 8.64783L11.6221 13.8978C11.7368 13.9647 11.8672 14 12 14C12.1328 14 12.2632 13.9647 12.3779 13.8978L21.3779 8.64783C21.4911 8.58177 21.5851 8.4872 21.6504 8.37354C21.7156 8.25987 21.75 8.13108 21.75 8C21.75 7.86892 21.7156 7.74013 21.6504 7.62646C21.5851 7.5128 21.4911 7.41823 21.3779 7.35217L12.3779 2.10217C12.2632 2.03526 12.1328 2 12 2C11.8672 2 11.7368 2.03526 11.6221 2.10217L2.62207 7.35217C2.50885 7.41823 2.41492 7.5128 2.34964 7.62646C2.28435 7.74013 2.25 7.86892 2.25 8C2.25 8.13108 2.28435 8.25987 2.34964 8.37354C2.41492 8.4872 2.50885 8.58177 2.62207 8.64783Z" fill="#2E65F3"/>
</svg>
