<svg width="24" height="25" viewBox="0 0 24 25" fill="none" xmlns="http://www.w3.org/2000/svg">
<path d="M18.8224 5.55216C17.007 3.75458 14.5546 2.74737 11.9998 2.75001C11.9665 2.75001 11.9332 2.75016 11.8999 2.75046C9.60829 2.77435 7.3983 3.60459 5.65778 5.09546C3.91727 6.58634 2.75745 8.64259 2.38186 10.9034C2.00628 13.1641 2.43894 15.4849 3.60391 17.4585C4.76887 19.4321 6.59171 20.9323 8.75251 21.6958C9.20499 21.8553 9.68912 21.904 10.1643 21.8377C10.6395 21.7715 11.0918 21.5922 11.4834 21.315C11.875 21.0378 12.1943 20.6707 12.4147 20.2446C12.6351 19.8184 12.7501 19.3456 12.75 18.8658V18.5C12.7505 18.1023 12.9087 17.7211 13.1899 17.4398C13.4711 17.1586 13.8523 17.0005 14.25 17H18.5822C19.2626 17.0033 19.9237 16.7738 20.4558 16.3497C20.988 15.9256 21.3591 15.3323 21.5076 14.6682C21.6751 13.9295 21.7563 13.1739 21.7497 12.4164C21.7404 11.1354 21.4769 9.86906 20.9744 8.69073C20.4719 7.51239 19.7404 6.44557 18.8224 5.55216ZM8.34065 15.9118C8.14796 16.023 7.9266 16.0746 7.70457 16.0601C7.48254 16.0455 7.26981 15.9655 7.09329 15.83C6.91676 15.6946 6.78437 15.5098 6.71285 15.2991C6.64132 15.0884 6.63389 14.8612 6.69148 14.6463C6.74907 14.4314 6.8691 14.2384 7.03639 14.0917C7.20368 13.945 7.41071 13.8512 7.63131 13.8221C7.85192 13.7931 8.07618 13.8301 8.27573 13.9285C8.47529 14.0269 8.64118 14.1823 8.75243 14.375C8.8263 14.5029 8.87424 14.6442 8.89353 14.7907C8.91281 14.9371 8.90305 15.086 8.86482 15.2287C8.82658 15.3714 8.76061 15.5051 8.67067 15.6223C8.58074 15.7396 8.46859 15.8379 8.34065 15.9118ZM8.75243 10.625C8.64118 10.8177 8.47528 10.9731 8.27572 11.0715C8.07617 11.1699 7.85191 11.2069 7.63131 11.1779C7.41071 11.1488 7.20368 11.055 7.03639 10.9083C6.86911 10.7616 6.74908 10.5686 6.6915 10.3537C6.63391 10.1387 6.64135 9.91156 6.71287 9.70087C6.78439 9.49017 6.91678 9.30542 7.0933 9.16997C7.26982 9.03452 7.48255 8.95445 7.70457 8.9399C7.9266 8.92534 8.14796 8.97695 8.34065 9.0882C8.4686 9.16207 8.58074 9.26042 8.67068 9.37762C8.76062 9.49483 8.82659 9.62861 8.86483 9.77132C8.90307 9.91402 8.91282 10.0629 8.89354 10.2093C8.87425 10.3558 8.8263 10.4971 8.75243 10.625ZM12 8.75C11.7775 8.75 11.56 8.68402 11.375 8.56041C11.19 8.43679 11.0458 8.26109 10.9607 8.05552C10.8755 7.84996 10.8532 7.62376 10.8966 7.40553C10.9401 7.1873 11.0472 6.98684 11.2045 6.82951C11.3619 6.67218 11.5623 6.56503 11.7806 6.52162C11.9988 6.47821 12.225 6.50049 12.4305 6.58564C12.6361 6.67079 12.8118 6.81498 12.9354 6.99999C13.059 7.18499 13.125 7.4025 13.125 7.625C13.125 7.92337 13.0065 8.20952 12.7955 8.4205C12.5845 8.63148 12.2984 8.75 12 8.75ZM16.7844 11.0368C16.5917 11.148 16.3703 11.1996 16.1483 11.1851C15.9263 11.1705 15.7136 11.0905 15.537 10.955C15.3605 10.8196 15.2281 10.6348 15.1566 10.4241C15.0851 10.2134 15.0776 9.98623 15.1352 9.77131C15.1928 9.55639 15.3128 9.36337 15.4801 9.21666C15.6474 9.06996 15.8545 8.97615 16.0751 8.94711C16.2957 8.91807 16.5199 8.9551 16.7195 9.05351C16.919 9.15193 17.0849 9.30731 17.1962 9.5C17.2701 9.62795 17.318 9.76919 17.3373 9.91566C17.3566 10.0621 17.3468 10.211 17.3086 10.3537C17.2703 10.4964 17.2044 10.6301 17.1144 10.7473C17.0245 10.8646 16.9123 10.9629 16.7844 11.0368Z" fill="#2E65F3"/>
</svg>
