<svg width="24" height="25" viewBox="0 0 24 25" fill="none" xmlns="http://www.w3.org/2000/svg">
<path d="M21.6213 2.87907C21.0582 2.31739 20.2954 2.00195 19.5 2.00195C18.7047 2.00195 17.9418 2.31739 17.3788 2.87907C17.3691 2.8886 17.3599 2.89848 17.3508 2.90846L12.2038 8.64351L11.341 7.78072C10.9191 7.35877 10.3468 7.12172 9.75002 7.12172C9.15329 7.12172 8.58099 7.35877 8.15902 7.78072L0.969658 14.9701C0.829012 15.1107 0.75 15.3015 0.75 15.5004C0.75 15.6994 0.829012 15.8901 0.969658 16.0308L8.46966 23.5308C8.61034 23.6714 8.80111 23.7504 9.00002 23.7504C9.19894 23.7504 9.38971 23.6714 9.53039 23.5308L16.7198 16.3414C17.1417 15.9195 17.3787 15.3472 17.3787 14.7504C17.3787 14.1537 17.1417 13.5814 16.7198 13.1594L15.857 12.2967L21.592 7.14964C21.602 7.14058 21.6119 7.13133 21.6214 7.12172C22.1831 6.55864 22.4986 5.79574 22.4986 5.00038C22.4986 4.20501 22.1831 3.44213 21.6213 2.87907ZM9.00002 21.9398L7.67613 20.6159L10.07 18.2221C10.2105 18.0814 10.2894 17.8907 10.2893 17.6919C10.2892 17.493 10.2102 17.3024 10.0696 17.1618C9.92902 17.0212 9.73835 16.9422 9.53952 16.9421C9.34069 16.942 9.14997 17.0209 9.00927 17.1614L6.6154 19.5552L5.05113 17.9909L7.445 15.5971C7.58549 15.4564 7.66437 15.2657 7.6643 15.0669C7.66422 14.868 7.58521 14.6774 7.44461 14.5368C7.30402 14.3962 7.11335 14.3172 6.91452 14.3171C6.71569 14.317 6.52497 14.3959 6.38427 14.5364L3.9904 16.9302L2.56066 15.5004L6.75002 11.3112L13.1893 17.7504L9.00002 21.9398Z" fill="#2E65F3"/>
</svg>
