<svg width="24" height="25" viewBox="0 0 24 25" fill="none" xmlns="http://www.w3.org/2000/svg">
<path d="M21.7512 9.19043L15.3119 2.75098C15.0303 2.47017 14.6488 2.31248 14.2512 2.3125C13.8535 2.31252 13.4721 2.47024 13.1905 2.75107L10.8357 5.1059L5.39322 7.14684C5.14697 7.23962 4.92937 7.39538 4.76215 7.59857C4.59493 7.80175 4.48394 8.04525 4.44025 8.30475L2.49338 19.9857C2.48032 20.0641 2.49249 20.1446 2.52813 20.2156C2.56378 20.2866 2.62105 20.3445 2.6917 20.3808C2.76235 20.4172 2.84272 20.4302 2.92121 20.4179C2.99971 20.4056 3.07228 20.3687 3.12846 20.3125L8.29261 15.1483C7.92121 14.5185 7.79228 13.7749 7.92997 13.0569C8.06767 12.3388 8.46255 11.6957 9.04057 11.248C9.61859 10.8003 10.3401 10.5788 11.0697 10.625C11.7994 10.6712 12.4871 10.982 13.004 11.4991C13.5209 12.0162 13.8314 12.7041 13.8774 13.4337C13.9233 14.1634 13.7015 14.8848 13.2536 15.4627C12.8057 16.0405 12.1624 16.4351 11.4443 16.5725C10.7262 16.71 9.98264 16.5807 9.35301 16.2091L4.18821 21.3741C4.13203 21.4303 4.09515 21.5028 4.08288 21.5813C4.07061 21.6598 4.08359 21.7402 4.11995 21.8108C4.1563 21.8815 4.21415 21.9388 4.28516 21.9744C4.35617 22.01 4.43666 22.0222 4.51503 22.0091L16.1975 20.0621C16.457 20.0184 16.7005 19.9074 16.9037 19.7402C17.1069 19.573 17.2626 19.3554 17.3554 19.1092L19.3964 13.6666L21.7511 11.3118C21.8904 11.1725 22.001 11.0072 22.0764 10.8252C22.1518 10.6432 22.1906 10.4481 22.1906 10.2511C22.1906 10.0541 22.1518 9.85908 22.0764 9.67709C22.001 9.49509 21.8905 9.32972 21.7512 9.19044L21.7512 9.19043ZM18.7512 12.1904L12.3119 5.75107L14.2512 3.81171L20.6905 10.2511L18.7512 12.1904Z" fill="#2E65F3"/>
<path d="M10.875 15.125C11.7034 15.125 12.375 14.4534 12.375 13.625C12.375 12.7966 11.7034 12.125 10.875 12.125C10.0466 12.125 9.375 12.7966 9.375 13.625C9.375 14.4534 10.0466 15.125 10.875 15.125Z" fill="#2E65F3"/>
</svg>
