<svg width="24" height="24" viewBox="0 0 24 24" fill="none" xmlns="http://www.w3.org/2000/svg">
<path d="M13.5 20.25H10.5C10.3011 20.25 10.1103 20.329 9.96967 20.4697C9.82902 20.6103 9.75 20.8011 9.75 21C9.75 21.1989 9.82902 21.3897 9.96967 21.5303C10.1103 21.671 10.3011 21.75 10.5 21.75H13.5C13.6989 21.75 13.8897 21.671 14.0303 21.5303C14.171 21.3897 14.25 21.1989 14.25 21C14.25 20.8011 14.171 20.6103 14.0303 20.4697C13.8897 20.329 13.6989 20.25 13.5 20.25Z" fill="#2E65F3"/>
<path d="M20.5899 13.4876L17.7552 10.086C17.6646 8.96553 17.4126 7.86405 17.007 6.81566C15.9179 3.98329 13.9924 2.12825 12.9415 1.27452C12.6751 1.06002 12.3436 0.942554 12.0015 0.941415C11.6594 0.940275 11.3271 1.05553 11.0592 1.26825C9.99465 2.12111 8.04439 3.97477 6.94429 6.80756C6.52519 7.87967 6.26931 9.0086 6.18518 10.1566L3.40944 13.4876C3.26322 13.6641 3.15914 13.8717 3.10508 14.0944C3.05102 14.3172 3.0484 14.5494 3.09743 14.7733L4.25649 19.9889C4.31142 20.2377 4.4289 20.4685 4.59784 20.6593C4.76677 20.8501 4.98158 20.9947 5.22195 21.0794C5.46233 21.164 5.72032 21.186 5.97156 21.1432C6.22279 21.1004 6.45896 20.9943 6.65774 20.8348L9.26268 18.7508H14.7366L17.3415 20.8348C17.6062 21.0479 17.9358 21.1642 18.2757 21.1645C18.4464 21.1643 18.6159 21.1352 18.7769 21.0783C19.0176 20.9944 19.2328 20.8502 19.4019 20.6595C19.571 20.4688 19.6883 20.2379 19.7428 19.9889L20.9019 14.7734C20.9509 14.5494 20.9483 14.3173 20.8942 14.0945C20.8402 13.8717 20.7361 13.6642 20.5899 13.4876V13.4876ZM5.72078 19.6635L4.56173 14.4479L6.24234 12.4311C6.4554 14.1834 7.05354 15.9766 8.03675 17.8107L5.72078 19.6635ZM11.9997 10.1258C11.7771 10.1258 11.5596 10.0599 11.3746 9.93624C11.1896 9.81262 11.0454 9.63692 10.9603 9.43135C10.8751 9.22579 10.8529 8.99959 10.8963 8.78136C10.9397 8.56313 11.0468 8.36267 11.2042 8.20534C11.3615 8.04801 11.5619 7.94086 11.7802 7.89745C11.9984 7.85404 12.2246 7.87632 12.4302 7.96147C12.6357 8.04662 12.8114 8.19081 12.9351 8.37582C13.0587 8.56082 13.1247 8.77833 13.1247 9.00084C13.1247 9.2992 13.0061 9.58535 12.7951 9.79633C12.5842 10.0073 12.298 10.1258 11.9997 10.1258ZM18.2785 19.6635L15.9582 17.8072C16.9289 15.9603 17.5146 14.1516 17.7154 12.3813L19.4376 14.4479L18.2785 19.6635Z" fill="#2E65F3"/>
</svg>
